<mxfile host="app.diagrams.net" agent="Mozilla/5.0 (Windows NT 10.0; Win64; x64) AppleWebKit/537.36 (KHTML, like Gecko) Chrome/128.0.0.0 Safari/537.36" version="24.7.8">
  <diagram name="Page-1" id="F_SyyrcAdbHDoPKD1IAH">
    <mxGraphModel dx="989" dy="541" grid="1" gridSize="10" guides="1" tooltips="1" connect="1" arrows="1" fold="1" page="1" pageScale="1" pageWidth="1654" pageHeight="1169" math="0" shadow="0">
      <root>
        <mxCell id="0" />
        <mxCell id="1" parent="0" />
        <mxCell id="XMmS2_mtmJLEvCQ2yvIi-1" value="&lt;h1 style=&quot;margin-top: 0px;&quot;&gt;Admin Flow&lt;/h1&gt;" style="text;html=1;whiteSpace=wrap;overflow=hidden;rounded=0;" vertex="1" parent="1">
          <mxGeometry x="80" y="160" width="180" height="40" as="geometry" />
        </mxCell>
        <mxCell id="XMmS2_mtmJLEvCQ2yvIi-5" style="edgeStyle=orthogonalEdgeStyle;rounded=0;orthogonalLoop=1;jettySize=auto;html=1;exitX=1;exitY=0.5;exitDx=0;exitDy=0;entryX=0;entryY=0.5;entryDx=0;entryDy=0;" edge="1" parent="1" source="XMmS2_mtmJLEvCQ2yvIi-2">
          <mxGeometry relative="1" as="geometry">
            <mxPoint x="400" y="280" as="targetPoint" />
          </mxGeometry>
        </mxCell>
        <mxCell id="XMmS2_mtmJLEvCQ2yvIi-6" value="&lt;font style=&quot;font-size: 14px;&quot;&gt;Yes&lt;/font&gt;" style="edgeLabel;html=1;align=center;verticalAlign=middle;resizable=0;points=[];" vertex="1" connectable="0" parent="XMmS2_mtmJLEvCQ2yvIi-5">
          <mxGeometry x="0.0667" y="-2" relative="1" as="geometry">
            <mxPoint as="offset" />
          </mxGeometry>
        </mxCell>
        <mxCell id="XMmS2_mtmJLEvCQ2yvIi-9" style="edgeStyle=orthogonalEdgeStyle;rounded=0;orthogonalLoop=1;jettySize=auto;html=1;exitX=0.5;exitY=1;exitDx=0;exitDy=0;entryX=0.5;entryY=0;entryDx=0;entryDy=0;" edge="1" parent="1" source="XMmS2_mtmJLEvCQ2yvIi-2" target="XMmS2_mtmJLEvCQ2yvIi-7">
          <mxGeometry relative="1" as="geometry" />
        </mxCell>
        <mxCell id="XMmS2_mtmJLEvCQ2yvIi-10" value="No" style="edgeLabel;html=1;align=center;verticalAlign=middle;resizable=0;points=[];" vertex="1" connectable="0" parent="XMmS2_mtmJLEvCQ2yvIi-9">
          <mxGeometry x="-0.2" y="-1" relative="1" as="geometry">
            <mxPoint as="offset" />
          </mxGeometry>
        </mxCell>
        <mxCell id="XMmS2_mtmJLEvCQ2yvIi-2" value="Login ?" style="rhombus;whiteSpace=wrap;html=1;" vertex="1" parent="1">
          <mxGeometry x="200" y="240" width="80" height="80" as="geometry" />
        </mxCell>
        <mxCell id="XMmS2_mtmJLEvCQ2yvIi-14" style="edgeStyle=orthogonalEdgeStyle;rounded=0;orthogonalLoop=1;jettySize=auto;html=1;exitX=0;exitY=0.5;exitDx=0;exitDy=0;entryX=1;entryY=0.5;entryDx=0;entryDy=0;" edge="1" parent="1" source="XMmS2_mtmJLEvCQ2yvIi-3" target="XMmS2_mtmJLEvCQ2yvIi-13">
          <mxGeometry relative="1" as="geometry" />
        </mxCell>
        <mxCell id="XMmS2_mtmJLEvCQ2yvIi-17" value="" style="edgeStyle=orthogonalEdgeStyle;rounded=0;orthogonalLoop=1;jettySize=auto;html=1;" edge="1" parent="1" source="XMmS2_mtmJLEvCQ2yvIi-3" target="XMmS2_mtmJLEvCQ2yvIi-13">
          <mxGeometry relative="1" as="geometry" />
        </mxCell>
        <mxCell id="XMmS2_mtmJLEvCQ2yvIi-19" value="No" style="edgeLabel;html=1;align=center;verticalAlign=middle;resizable=0;points=[];" vertex="1" connectable="0" parent="XMmS2_mtmJLEvCQ2yvIi-17">
          <mxGeometry x="0.2238" y="1" relative="1" as="geometry">
            <mxPoint as="offset" />
          </mxGeometry>
        </mxCell>
        <mxCell id="XMmS2_mtmJLEvCQ2yvIi-21" style="edgeStyle=orthogonalEdgeStyle;rounded=0;orthogonalLoop=1;jettySize=auto;html=1;exitX=1;exitY=0.5;exitDx=0;exitDy=0;entryX=0;entryY=0.5;entryDx=0;entryDy=0;" edge="1" parent="1" source="XMmS2_mtmJLEvCQ2yvIi-3" target="XMmS2_mtmJLEvCQ2yvIi-20">
          <mxGeometry relative="1" as="geometry" />
        </mxCell>
        <mxCell id="XMmS2_mtmJLEvCQ2yvIi-28" value="Yes" style="edgeLabel;html=1;align=center;verticalAlign=middle;resizable=0;points=[];" vertex="1" connectable="0" parent="XMmS2_mtmJLEvCQ2yvIi-21">
          <mxGeometry x="-0.4643" y="2" relative="1" as="geometry">
            <mxPoint as="offset" />
          </mxGeometry>
        </mxCell>
        <mxCell id="XMmS2_mtmJLEvCQ2yvIi-3" value="Have&lt;div&gt;Account ?&lt;/div&gt;" style="rhombus;whiteSpace=wrap;html=1;" vertex="1" parent="1">
          <mxGeometry x="200" y="440" width="80" height="80" as="geometry" />
        </mxCell>
        <mxCell id="XMmS2_mtmJLEvCQ2yvIi-11" style="edgeStyle=orthogonalEdgeStyle;rounded=0;orthogonalLoop=1;jettySize=auto;html=1;exitX=0.5;exitY=1;exitDx=0;exitDy=0;entryX=0.5;entryY=0;entryDx=0;entryDy=0;" edge="1" parent="1" source="XMmS2_mtmJLEvCQ2yvIi-7" target="XMmS2_mtmJLEvCQ2yvIi-3">
          <mxGeometry relative="1" as="geometry" />
        </mxCell>
        <mxCell id="XMmS2_mtmJLEvCQ2yvIi-7" value="/login" style="rounded=0;whiteSpace=wrap;html=1;" vertex="1" parent="1">
          <mxGeometry x="200" y="360" width="80" height="40" as="geometry" />
        </mxCell>
        <mxCell id="XMmS2_mtmJLEvCQ2yvIi-15" style="edgeStyle=orthogonalEdgeStyle;rounded=0;orthogonalLoop=1;jettySize=auto;html=1;exitX=1;exitY=0.5;exitDx=0;exitDy=0;entryX=0;entryY=0.5;entryDx=0;entryDy=0;" edge="1" parent="1" source="XMmS2_mtmJLEvCQ2yvIi-8" target="XMmS2_mtmJLEvCQ2yvIi-2">
          <mxGeometry relative="1" as="geometry" />
        </mxCell>
        <mxCell id="XMmS2_mtmJLEvCQ2yvIi-8" value="&lt;font size=&quot;1&quot; style=&quot;&quot;&gt;&lt;b style=&quot;font-size: 20px;&quot;&gt;/&lt;/b&gt;&lt;/font&gt;" style="rounded=0;whiteSpace=wrap;html=1;" vertex="1" parent="1">
          <mxGeometry x="80" y="260" width="80" height="40" as="geometry" />
        </mxCell>
        <mxCell id="XMmS2_mtmJLEvCQ2yvIi-16" style="edgeStyle=orthogonalEdgeStyle;rounded=0;orthogonalLoop=1;jettySize=auto;html=1;exitX=0.5;exitY=0;exitDx=0;exitDy=0;" edge="1" parent="1" source="XMmS2_mtmJLEvCQ2yvIi-13">
          <mxGeometry relative="1" as="geometry">
            <mxPoint x="180" y="280" as="targetPoint" />
          </mxGeometry>
        </mxCell>
        <mxCell id="XMmS2_mtmJLEvCQ2yvIi-13" value="/login/register" style="rounded=0;whiteSpace=wrap;html=1;" vertex="1" parent="1">
          <mxGeometry x="40" y="460" width="100" height="40" as="geometry" />
        </mxCell>
        <mxCell id="XMmS2_mtmJLEvCQ2yvIi-22" style="edgeStyle=orthogonalEdgeStyle;rounded=0;orthogonalLoop=1;jettySize=auto;html=1;exitX=0.5;exitY=0;exitDx=0;exitDy=0;" edge="1" parent="1" source="XMmS2_mtmJLEvCQ2yvIi-20">
          <mxGeometry relative="1" as="geometry">
            <mxPoint x="300" y="280" as="targetPoint" />
          </mxGeometry>
        </mxCell>
        <mxCell id="XMmS2_mtmJLEvCQ2yvIi-20" value="/login/admin" style="rounded=0;whiteSpace=wrap;html=1;" vertex="1" parent="1">
          <mxGeometry x="320" y="460" width="100" height="40" as="geometry" />
        </mxCell>
        <mxCell id="XMmS2_mtmJLEvCQ2yvIi-74" style="edgeStyle=orthogonalEdgeStyle;rounded=0;orthogonalLoop=1;jettySize=auto;html=1;exitX=1;exitY=0.5;exitDx=0;exitDy=0;entryX=0;entryY=0.5;entryDx=0;entryDy=0;" edge="1" parent="1" source="XMmS2_mtmJLEvCQ2yvIi-62" target="XMmS2_mtmJLEvCQ2yvIi-63">
          <mxGeometry relative="1" as="geometry" />
        </mxCell>
        <mxCell id="XMmS2_mtmJLEvCQ2yvIi-75" style="edgeStyle=orthogonalEdgeStyle;rounded=0;orthogonalLoop=1;jettySize=auto;html=1;exitX=0.5;exitY=0;exitDx=0;exitDy=0;entryX=0;entryY=0.5;entryDx=0;entryDy=0;" edge="1" parent="1" source="XMmS2_mtmJLEvCQ2yvIi-62" target="XMmS2_mtmJLEvCQ2yvIi-73">
          <mxGeometry relative="1" as="geometry" />
        </mxCell>
        <mxCell id="XMmS2_mtmJLEvCQ2yvIi-76" style="edgeStyle=orthogonalEdgeStyle;rounded=0;orthogonalLoop=1;jettySize=auto;html=1;exitX=0.5;exitY=1;exitDx=0;exitDy=0;entryX=0;entryY=0.5;entryDx=0;entryDy=0;" edge="1" parent="1" source="XMmS2_mtmJLEvCQ2yvIi-62" target="XMmS2_mtmJLEvCQ2yvIi-71">
          <mxGeometry relative="1" as="geometry" />
        </mxCell>
        <mxCell id="XMmS2_mtmJLEvCQ2yvIi-77" style="edgeStyle=orthogonalEdgeStyle;rounded=0;orthogonalLoop=1;jettySize=auto;html=1;exitX=0.75;exitY=1;exitDx=0;exitDy=0;entryX=0;entryY=0.5;entryDx=0;entryDy=0;" edge="1" parent="1" source="XMmS2_mtmJLEvCQ2yvIi-62" target="XMmS2_mtmJLEvCQ2yvIi-70">
          <mxGeometry relative="1" as="geometry" />
        </mxCell>
        <mxCell id="XMmS2_mtmJLEvCQ2yvIi-78" style="edgeStyle=orthogonalEdgeStyle;rounded=0;orthogonalLoop=1;jettySize=auto;html=1;exitX=0.75;exitY=0;exitDx=0;exitDy=0;entryX=0;entryY=0.5;entryDx=0;entryDy=0;" edge="1" parent="1" source="XMmS2_mtmJLEvCQ2yvIi-62" target="XMmS2_mtmJLEvCQ2yvIi-72">
          <mxGeometry relative="1" as="geometry" />
        </mxCell>
        <mxCell id="XMmS2_mtmJLEvCQ2yvIi-62" value="/admin&lt;div&gt;(Home)&lt;/div&gt;" style="rounded=0;whiteSpace=wrap;html=1;" vertex="1" parent="1">
          <mxGeometry x="400" y="260" width="80" height="40" as="geometry" />
        </mxCell>
        <mxCell id="XMmS2_mtmJLEvCQ2yvIi-63" value="/admin/user-management" style="rounded=0;whiteSpace=wrap;html=1;" vertex="1" parent="1">
          <mxGeometry x="520" y="260" width="160" height="40" as="geometry" />
        </mxCell>
        <mxCell id="XMmS2_mtmJLEvCQ2yvIi-70" value="/admin/ride-monitoring" style="rounded=0;whiteSpace=wrap;html=1;" vertex="1" parent="1">
          <mxGeometry x="520" y="320" width="160" height="40" as="geometry" />
        </mxCell>
        <mxCell id="XMmS2_mtmJLEvCQ2yvIi-71" value="/admin/reports" style="rounded=0;whiteSpace=wrap;html=1;" vertex="1" parent="1">
          <mxGeometry x="520" y="380" width="160" height="40" as="geometry" />
        </mxCell>
        <mxCell id="XMmS2_mtmJLEvCQ2yvIi-72" value="/admin/issue-management" style="rounded=0;whiteSpace=wrap;html=1;" vertex="1" parent="1">
          <mxGeometry x="520" y="200" width="160" height="40" as="geometry" />
        </mxCell>
        <mxCell id="XMmS2_mtmJLEvCQ2yvIi-73" value="/admin/policy-manegement" style="rounded=0;whiteSpace=wrap;html=1;" vertex="1" parent="1">
          <mxGeometry x="520" y="140" width="160" height="40" as="geometry" />
        </mxCell>
      </root>
    </mxGraphModel>
  </diagram>
</mxfile>
